HIERARCHY
ROOT Hips
{
 OFFSET 0.000000 0.000000 0.000000
 CHANNELS 6 Xposition Yposition Zposition Yrotation Xrotation Zrotation
 JOINT Chest
 {
  OFFSET 0.000000 12.953391 -0.028419
  CHANNELS 3 Yrotation Xrotation Zrotation
  JOINT Chest2
  {
   OFFSET 0.000000 10.280254 0.051622
   CHANNELS 3 Yrotation Xrotation Zrotation
   JOINT Chest3
   {
    OFFSET 0.000000 9.287180 0.000000
    CHANNELS 3 Yrotation Xrotation Zrotation
    JOINT Chest4
    {
     OFFSET 0.000000 9.287180 0.000000
     CHANNELS 3 Yrotation Xrotation Zrotation
     JOINT Neck
     {
      OFFSET 0.000000 13.296264 0.000000
      CHANNELS 3 Yrotation Xrotation Zrotation
      JOINT Head
      {
       OFFSET 0.000000 8.959264 0.099003
       CHANNELS 3 Yrotation Xrotation Zrotation
       End Site
       {
        OFFSET 0.000000 17.121337 0.039303
       }
      }
     }
     JOINT RightCollar
     {
      OFFSET -3.193511 7.451388 0.000000
      CHANNELS 3 Yrotation Xrotation Zrotation
      JOINT RightShoulder
      {
       OFFSET -15.792092 0.000000 0.000000
       CHANNELS 3 Yrotation Xrotation Zrotation
       JOINT RightElbow
       {
        OFFSET -31.151839 0.000000 0.000000
        CHANNELS 3 Yrotation Xrotation Zrotation
        JOINT RightWrist
        {
         OFFSET -25.536298 0.000000 0.002321
         CHANNELS 3 Yrotation Xrotation Zrotation
         End Site
         {
          OFFSET -19.133213 0.000000 0.000000
         }
        }
       }
      }
     }
     JOINT LeftCollar
     {
      OFFSET 3.193511 7.451388 0.000000
      CHANNELS 3 Yrotation Xrotation Zrotation
      JOINT LeftShoulder
      {
       OFFSET 15.792092 0.000000 0.000000
       CHANNELS 3 Yrotation Xrotation Zrotation
       JOINT LeftElbow
       {
        OFFSET 31.151839 0.000000 0.000000
        CHANNELS 3 Yrotation Xrotation Zrotation
        JOINT LeftWrist
        {
         OFFSET 25.536298 0.000000 0.002321
         CHANNELS 3 Yrotation Xrotation Zrotation
         End Site
         {
          OFFSET 19.133213 0.000000 0.000000
         }
        }
       }
      }
     }
    }
   }
  }
 }
 JOINT RightHip
 {
  OFFSET -10.745749 0.139252 0.014209
  CHANNELS 3 Yrotation Xrotation Zrotation
  JOINT RightKnee
  {
   OFFSET 0.000000 -43.743899 -0.006071
   CHANNELS 3 Yrotation Xrotation Zrotation
   JOINT RightAnkle
   {
    OFFSET 0.000000 -43.214199 0.089931
    CHANNELS 3 Yrotation Xrotation Zrotation
    JOINT RightToe
    {
     OFFSET 0.000000 -9.699830 19.151588
     CHANNELS 3 Yrotation Xrotation Zrotation
     End Site
     {
      OFFSET 0.000000 -1.292898 4.893873
     }
    }
   }
  }
 }
 JOINT LeftHip
 {
  OFFSET 10.745749 0.139252 0.014209
  CHANNELS 3 Yrotation Xrotation Zrotation
  JOINT LeftKnee
  {
   OFFSET 0.000000 -43.743899 -0.006071
   CHANNELS 3 Yrotation Xrotation Zrotation
   JOINT LeftAnkle
   {
    OFFSET 0.000000 -43.214199 0.089931
    CHANNELS 3 Yrotation Xrotation Zrotation
    JOINT LeftToe
    {
     OFFSET 0.000000 -9.699830 19.151588
     CHANNELS 3 Yrotation Xrotation Zrotation
     End Site
     {
      OFFSET 0.000000 -1.292898 4.893873
     }
    }
   }
  }
 }
}
MOTION
Frames: 7
Frame Time: 0.016667
-158.571224 98.721887 62.686589 95.221921 -16.633579 7.634704 -4.041375 13.034926 2.796733 -1.863204 5.768952 1.348893 -1.863204 5.768952 1.348893 -1.408999 4.322679 1.028465 -11.863358 21.017837 6.503762 -23.300068 5.000652 15.029773 10.691774 4.439421 6.517630 8.935151 -19.666525 55.657209 0.647944 -12.044036 -9.753854 7.373886 18.381280 -40.340500 -4.730931 3.600751 -15.710826 -5.632643 -4.785960 -74.204238 -12.534632 8.945376 1.665464 5.110107 14.282049 8.233941 -11.390037 18.754887 -4.174999 -2.240452 3.196865 -0.295469 -21.338376 -9.840702 -3.009499 0.000000 0.000000 0.000000 28.695469 1.614363 10.090315 2.832782 13.302090 -0.920187 16.360858 10.102588 -1.559591 -0.000000 0.000000 0.000000
-158.643175 98.702595 62.633964 95.048807 -16.494509 7.558205 -3.949826 12.978768 2.800740 -1.822663 5.744501 1.347647 -1.822665 5.744496 1.347641 -1.378565 4.304425 1.027073 -11.826147 21.048626 6.502117 -23.227592 5.048136 15.011592 10.688089 4.463138 6.662471 9.038768 -19.575566 55.598940 0.501865 -11.717246 -9.820683 7.341954 18.267071 -40.450996 -4.771545 3.639615 -15.491173 -5.496041 -4.780909 -74.326893 -12.844598 9.102860 1.694553 5.131006 14.287924 8.265878 -11.402470 18.610205 -4.166365 -2.528481 3.166701 -0.246855 -20.794027 -9.728211 -3.026762 -0.000000 0.000000 -0.000000 28.183879 1.467914 10.404359 3.740143 13.637896 -1.067272 14.968482 9.398993 -1.983809 0.000000 -0.000000 0.000000
-158.715125 98.683303 62.581340 94.875624 -16.355662 7.481323 -3.858423 12.922404 2.804665 -1.782167 5.719972 1.346408 -1.782168 5.719968 1.346404 -1.348159 4.286120 1.025700 -11.788877 21.079358 6.500510 -23.155049 5.095552 14.993520 10.684459 4.486982 6.807296 9.142182 -19.484483 55.540808 0.355454 -11.390700 -9.888350 7.309457 18.152579 -40.561116 -4.812118 3.678860 -15.271605 -5.359523 -4.775449 -74.449611 -13.154696 9.260365 1.722757 5.151945 14.293951 8.297764 -11.415109 18.465591 -4.157193 -2.816603 3.137314 -0.198182 -20.249868 -9.615375 -3.043403 0.000000 0.000000 0.000000 27.672324 1.325799 10.721598 4.646159 13.978671 -1.211095 13.584398 8.684811 -2.389022 0.000000 0.000000 0.000000
-158.778327 98.670310 62.511010 94.732333 -16.222886 7.402111 -3.793660 12.862708 2.803131 -1.753261 5.693853 1.343503 -1.753261 5.693853 1.343503 -1.326422 4.266606 1.023188 -11.751573 21.112239 6.492323 -23.080421 5.145282 14.963261 10.678666 4.511030 6.941087 9.210642 -19.412043 55.525787 0.282935 -11.065982 -9.974210 7.101232 18.096344 -40.668147 -4.856426 3.733847 -15.070592 -5.262048 -4.769398 -74.549700 -13.427252 9.375838 1.755157 5.162374 14.286128 8.333587 -11.418055 18.335549 -4.152140 -3.084546 3.091376 -0.150789 -19.767234 -9.498768 -3.045512 -0.000000 -0.000000 0.000000 27.238513 1.126061 10.983766 5.123590 14.493407 -1.239954 11.819125 7.751840 -2.733364 0.000000 0.000000 0.000000
-158.827562 98.666206 62.413961 94.651867 -16.101594 7.318005 -3.780308 12.797395 2.793719 -1.746812 5.664989 1.338519 -1.746812 5.664993 1.338521 -1.321491 4.244991 1.019321 -11.712509 21.148589 6.473892 -22.999447 5.198487 14.913590 10.670758 4.530647 7.059337 9.225051 -19.371950 55.573769 0.334718 -10.789835 -10.093565 6.646366 18.161719 -40.700430 -4.906631 3.819093 -14.899471 -5.223813 -4.758713 -74.614049 -13.659184 9.433263 1.792591 5.153327 14.260938 8.371215 -11.422872 18.230991 -4.160619 -3.322586 3.016747 -0.099271 -19.377256 -9.378791 -3.023606 0.000000 -0.000000 -0.000000 27.009168 0.815806 11.162244 4.867026 15.277025 -1.108925 9.227382 6.311137 -2.924526 0.000000 0.000000 0.000000
-158.868049 98.668402 62.299207 94.601214 -15.986222 7.231896 -3.793560 12.728953 2.779044 -1.751955 5.634608 1.331923 -1.751954 5.634612 1.331925 -1.325227 4.222213 1.014347 -11.673402 21.187044 6.448845 -22.916393 5.254003 14.851715 10.660595 4.550646 7.166504 9.204678 -19.350370 55.664656 0.460108 -10.515047 -10.229573 6.016380 18.286087 -40.729951 -4.960439 3.920295 -14.747228 -5.224612 -4.747984 -74.655736 -13.853154 9.448858 1.835795 5.133951 14.221848 8.413069 -11.417948 18.140903 -4.173667 -3.540589 2.925482 -0.048603 -19.048687 -9.255436 -2.987168 0.000000 0.000000 0.000000 26.856797 0.444106 11.284278 4.180273 16.232248 -0.883618 6.281650 4.624567 -2.932187 0.000000 0.000000 0.000000
-158.906702 98.675420 62.176094 94.511451 -15.866236 7.149906 -3.785572 12.661347 2.761258 -1.747644 5.604746 1.323365 -1.747644 5.604746 1.323365 -1.321864 4.199843 1.007813 -11.639438 21.225786 6.421496 -22.842000 5.310701 14.786969 10.645766 4.585283 7.264973 9.172563 -19.324893 55.781265 0.580973 -10.102551 -10.351742 5.249832 18.335382 -40.964003 -5.014976 4.009621 -14.598689 -5.242753 -4.750199 -74.691312 -13.980040 9.428986 1.889866 5.120890 14.165359 8.469961 -11.358698 18.046750 -4.168604 -3.747597 2.836309 -0.015674 -18.749264 -9.124817 -2.950688 0.000000 0.000000 -0.000000 26.477688 0.102206 11.379191 3.549665 17.237286 -0.617647 3.955985 3.309990 -2.889981 0.000000 -0.000000 0.000000
